<svg xmlns="http://www.w3.org/2000/svg" width="1296.436" height="168.281" viewBox="0 0 1296.436 168.281">
  <defs>
    <style>
      .cls-1 {
        fill: #fff;
        fill-rule: evenodd;
      }
    </style>
  </defs>
  <path id="WhiteDreams.svg" class="cls-1" d="M81.374,331.942h69.6q27.454,0,41.506,13.292t14.048,39.08q0,28.974-16.921,41.547T132.14,438.436H81.374V331.942ZM140.6,470.114q25.54,0,41.906-3.1t27.378-9.949a73.665,73.665,0,0,0,27.458-29.688q9.735-18.864,9.738-42.423,0-39.793-24.984-61.445t-71.439-21.649H42.1V470.114h98.5Zm288.39-111.588q3.27,2.547,3.273,8.6V383.04q0,6.051-3.273,8.6t-12.053,2.547H339.992v-38.2h76.946Q425.716,355.979,428.991,358.526Zm-89,111.588V417.9H371.76l57.95,52.213h48.371L412.309,417.9h19q17.08,0,24.744-6.208t7.663-20.216V359q0-14.166-7.663-20.455t-24.744-6.288H306.787V470.114h33.205Zm329.338,0V444.326H553.271V410.42h66.57V386.7h-66.57V356.615h114.3V332.26H519.268V470.114H669.33Zm61.3,0,17.4-30.245h91.474l17.4,30.245h37.835L811.41,332.26H779L696.947,470.114h33.685Zm62.9-112.862,32.247,57.466H762.4ZM956.2,470.114V377.469l62.577,76.09h6.55l61.78-78.319v94.874h31.29V332.26h-27.14l-67.37,81.821L956.2,332.26H929.224V470.114H956.2Zm351.527-98.376,29.22-6.208v-3.343q0-16.715-7.75-23.321t-28.65-6.606h-82.06q-21.225,0-28.73,6.925t-7.51,25.549v15.441q0,18.784,7.51,25.708t28.73,6.925h89.56v31.518H1206.36V428.089l-30.01,5.572v3.82q0,18.945,7.58,25.788t28.97,6.845h89.72q20.91,0,28.42-6.845t7.5-25.788V418.538q0-18.942-7.34-25.708t-28.58-6.765h-90.03V356.934h95.14v14.8Z" transform="translate(-42.094 -301.844)"/>
</svg>
